<?xml version="1.0" encoding="utf-8"?>
<!-- Generator: Adobe Illustrator 24.0.2, SVG Export Plug-In . SVG Version: 6.00 Build 0)  -->
<svg version="1.1" id="Capa_1" xmlns="http://www.w3.org/2000/svg" xmlns:xlink="http://www.w3.org/1999/xlink" x="0px" y="0px"
	 viewBox="0 0 246.6 104.8" style="enable-background:new 0 0 246.6 104.8;" xml:space="preserve">
<style type="text/css">
	.st0{fill-rule:evenodd;clip-rule:evenodd;fill:#1F4968;}
	.st1{fill:#1F4968;}
</style>
<g>
	<g>
		<path class="st0" d="M58.2,15.6c-1.1-0.1-2.1,0.1-3.1,0.5c-0.2,0.1-0.5,0-0.5-0.3c-0.3-1.3,1.6-5.3,3.2-6c0.2-0.1,0.4,0.1,0.5,0.3
			c0.2,1.1,0.7,2.2,1.5,3c0.2-0.4,0.4-0.8,0.6-1.2c0.6-1.4,1-2.7,1.3-3.9c2-1.3,4.4,0,4.9,2.7c-1.6,1.1-3.2,2.3-4.6,3.5
			c-0.4-0.6-1-1-1.7-1c-1.1,0-2,0.9-2,2L58.2,15.6L58.2,15.6z M9.9,15.8c-0.1,0.6-0.5,1.1-1,1.3c1.9,2,3.6,4.2,4.9,6.4
			c3.6-2.7,11.6-4.3,20.1-4.3c8.6,0,16.7,1.7,20.2,4.4c1.3-2.3,3-4.6,5-6.6c-0.4-0.3-0.8-0.8-0.9-1.3c-2,2.8-4.5,4.5-6.3,4.2
			c-2.2-0.5-2.7-3.9-1.3-8c-0.2,0.1-0.4,0.1-0.6,0.1c-0.6,0-1.2-0.3-1.6-0.7c-1.4,4.2-5.1,6.8-8.3,5.8c-2.1-0.7-3.5-2.7-3.9-5.3
			c-0.5,0.3-1,0.5-1.7,0.5c-0.7,0-1.4-0.3-1.9-0.7c-0.3,2.7-1.8,4.8-3.9,5.5c-3.3,1-7-1.7-8.4-6c-0.4,0.6-1.1,0.9-1.8,0.9
			c-0.3,0-0.6-0.1-0.8-0.2c1.4,4.1,0.9,7.5-1.3,8C14.4,20.3,11.9,18.6,9.9,15.8L9.9,15.8z M13.6,15.9c0,0.3-0.3,0.4-0.5,0.3
			c-1-0.5-2.1-0.7-3.2-0.5l0-0.2c0-1.1-0.9-2-2-2c-0.8,0-1.5,0.5-1.8,1.1C4.7,13.2,3,12,1.3,10.9C2,8.3,4.1,7.6,6.5,8
			c0.2,1.3,0.7,2.6,1.3,4c0.2,0.4,0.4,0.9,0.6,1.3c0.8-0.9,1.4-2,1.5-3.1c0-0.2,0.3-0.4,0.5-0.3C12.1,10.6,13.9,14.6,13.6,15.9
			L13.6,15.9z M18.4,8.6c0.7,0,1.3,0.6,1.3,1.3c0,0.7-0.6,1.3-1.3,1.3c-0.7,0-1.3-0.6-1.3-1.3C17.1,9.1,17.6,8.6,18.4,8.6L18.4,8.6z
			 M49.9,8.6c0.7,0,1.3,0.6,1.3,1.3c0,0.7-0.6,1.3-1.3,1.3c-0.7,0-1.3-0.6-1.3-1.3C48.6,9.1,49.2,8.6,49.9,8.6L49.9,8.6z M34.3,7.7
			c1.1,0,1.9,0.9,1.9,1.9c0,1.1-0.8,1.9-1.9,1.9c-1.1,0-1.9-0.9-1.9-1.9C32.4,8.6,33.3,7.7,34.3,7.7L34.3,7.7z M31.8,7.3
			C31.9,7.6,32,7.8,32,7.9c0.5-0.7,1.3-1.1,2.3-1.1c0.9,0,1.7,0.4,2.2,1.1c0-0.1,0.1-0.2,0.1-0.3c0.5-1.6,1.3-3.2,2.6-4.4
			c0.2-0.2,0.2-0.4,0-0.6c-2-2-8.5-1.6-10.1,0C29,2.7,29,3,29.2,3.1C30.3,4.2,31.3,5.6,31.8,7.3L31.8,7.3z M53.4,24.9
			c-0.7,1.4-1.3,2.8-1.8,4.2c-2.5-2.4-9.6-4.1-18-4.1c-7.9,0-14.7,1.5-17.5,3.7c-0.4-1.4-1-2.7-1.7-4c2.8-2.2,10-4.1,19.4-4.1
			C43.4,20.6,50.7,22.6,53.4,24.9L53.4,24.9z M26.7,5.3c0.2-0.2,0.5-0.2,0.7,0c1,1.3,2.5,2.4,4.3,2.9c0.1,0,0.1,0.1,0.2,0.1
			c-0.2,0.4-0.3,0.8-0.3,1.3c0,0.5,0.1,1,0.4,1.4c0,0.1-0.1,0.1-0.2,0.1c-1.8,0.5-3.3,1.6-4.4,3c-0.2,0.2-0.5,0.3-0.7,0
			C25.4,12.9,25.1,7.1,26.7,5.3L26.7,5.3z M36.9,8.4c0,0,0.1-0.1,0.2-0.1c1.7-0.5,3.2-1.5,4.3-2.9c0.2-0.2,0.5-0.2,0.7,0
			c1.5,1.8,1.2,7.5,0.1,8.9c-0.2,0.3-0.5,0.2-0.7,0c-1.1-1.4-2.6-2.5-4.4-3c-0.1,0-0.1-0.1-0.2-0.1c0.3-0.4,0.4-0.9,0.4-1.4
			C37.1,9.2,37,8.7,36.9,8.4L36.9,8.4z M60.1,14c-0.7,0-1.3,0.6-1.3,1.3c0,0.7,0.6,1.3,1.3,1.3c0.7,0,1.3-0.6,1.3-1.3
			C61.4,14.6,60.9,14,60.1,14L60.1,14z M7.9,14c0.7,0,1.3,0.6,1.3,1.3c0,0.7-0.6,1.3-1.3,1.3c-0.7,0-1.3-0.6-1.3-1.3
			C6.6,14.6,7.2,14,7.9,14z"/>
		<path class="st0" d="M34.5,40c0.3,0,0.5,0.2,0.5,0.2s0.6-0.4,1.1-0.3c-0.1,0.5-0.7,0.9-0.7,0.9s0,0.5-0.2,0.5
			c0.6,0,1.2,1.1,1.2,1.1s1.2,0.2,1.9,0.7c2.7-2.4,7.2-2.8,7.9-2.8c0.6,0,4.6,2.4,7,4.5c0,0-4-0.2-5.6,1.6c0,0-4.3-1-6.2-0.1
			c0,0-3.3-1-5-0.1c0,0-0.7,0.3-1.9,1.5c-1.2-1.2-1.9-1.5-1.9-1.5c-1.8-0.9-5,0.1-5,0.1c-1.9-0.9-6.2,0.1-6.2,0.1
			c-1.6-1.8-5.7-1.6-5.7-1.6c2.4-2.1,6.4-4.5,7-4.5c0.6,0,5.2,0.4,7.8,2.8c0.7-0.5,1.9-0.7,1.9-0.7s0.6-1.1,1.2-1.1
			c-0.1-0.1-0.2-0.5-0.2-0.5s-0.6-0.3-0.7-0.9c0.5-0.1,1.1,0.3,1.1,0.3S34,40,34.3,40H34.5z"/>
		<path class="st0" d="M30.1,58.1c0-0.1,0.1-0.2,0.1-0.2h8.2c0.1,0,0.1,0.1,0.1,0.2l0.2,5.8l1.2,2.5v3.7c0,0-0.1,0.1-0.1,0.1H36
			v-3.9c0-0.9-0.7-1.6-1.6-1.6c-0.9,0-1.6,0.7-1.6,1.6v3.9h-3.8c-0.1,0-0.1,0-0.1,0v-3.8l1.2-2.5L30.1,58.1L30.1,58.1z M31.4,60.3
			v0.4v1.1h1.8v-1.1v-0.4c0-0.5-0.4-0.9-0.9-0.9C31.8,59.4,31.4,59.8,31.4,60.3L31.4,60.3z M35.6,60.3v0.4v1.1h1.8v-1.1v-0.4
			c0-0.5-0.4-0.9-0.9-0.9C36,59.4,35.6,59.8,35.6,60.3z"/>
		<path class="st0" d="M29.9,51.8c0,0,0-0.1,0.1-0.1h2c0.1,0,0.1,0.1,0.1,0.1v2c0,0.1-0.1,0.1-0.1,0.1h-2c-0.1,0-0.1-0.1-0.1-0.1
			V51.8z"/>
		<path class="st0" d="M33.3,51.8c0,0,0-0.1,0.1-0.1h2c0.1,0,0.1,0.1,0.1,0.1v2c0,0.1-0.1,0.1-0.1,0.1h-2c-0.1,0-0.1-0.1-0.1-0.1
			V51.8z"/>
		<path class="st0" d="M36.7,51.8c0,0,0.1-0.1,0.1-0.1h1.9c0.1,0,0.1,0.1,0.1,0.1v2c0,0.1-0.1,0.1-0.1,0.1h-1.9
			c-0.1,0-0.1-0.1-0.1-0.1V51.8z"/>
		<path class="st0" d="M29.3,55.2c0,0,0.1-0.1,0.1-0.1h9.8c0.1,0,0.1,0.1,0.1,0.1v1.6c0,0-0.1,0.2-0.1,0.2h-9.8
			c-0.1,0-0.1-0.1-0.1-0.1V55.2z"/>
		<path class="st0" d="M17.6,78c0-0.1,0.1-0.1,0.2-0.1H26c0.1,0,0.1,0,0.1,0.1l0.2,5.8l1.2,2.5V90c0,0.1-0.1,0.1-0.1,0.1h-3.8v-3.9
			c0-0.9-0.7-1.6-1.6-1.6c-0.9,0-1.6,0.7-1.6,1.6v3.9h-3.8c-0.1,0-0.1-0.1-0.1-0.1v-3.7l1.2-2.5L17.6,78L17.6,78z M18.9,80.2v0.4
			v1.1h1.8v-1.1v-0.4c0-0.5-0.4-0.9-0.9-0.9C19.3,79.3,18.9,79.7,18.9,80.2L18.9,80.2z M23.1,80.2v0.4v1.1h1.8v-1.1v-0.4
			c0-0.5-0.4-0.9-0.9-0.9C23.5,79.3,23.1,79.7,23.1,80.2z"/>
		<path class="st0" d="M17.3,71.8c0-0.1,0.1-0.1,0.1-0.1h2c0.1,0,0.1,0,0.1,0.1v2c0,0.1-0.1,0.1-0.1,0.1h-2c-0.1,0-0.1-0.1-0.1-0.1
			V71.8z"/>
		<path class="st0" d="M20.7,71.8c0-0.1,0.1-0.1,0.1-0.1h2c0.1,0,0.1,0,0.1,0.1v2c0,0.1-0.1,0.1-0.1,0.1h-2c-0.1,0-0.1-0.1-0.1-0.1
			V71.8z"/>
		<path class="st0" d="M24.1,71.8c0-0.1,0.1-0.1,0.1-0.1h2c0.1,0,0.1,0,0.1,0.1v2c0,0.1-0.1,0.1-0.1,0.1h-2c-0.1,0-0.1-0.1-0.1-0.1
			V71.8z"/>
		<path class="st0" d="M16.8,75.1c0,0,0.1-0.2,0.1-0.2h9.8c0.1,0,0.1,0.1,0.1,0.1v1.6c0,0-0.1,0.2-0.1,0.2h-9.8
			c-0.1,0-0.1-0.1-0.1-0.1V75.1z"/>
		<path class="st0" d="M42.6,78c0-0.1,0.1-0.1,0.1-0.1H51c0.1,0,0.1,0,0.1,0.1l0.2,5.8l1.2,2.5V90c0,0.1-0.1,0.1-0.1,0.1h-3.8v-3.9
			c0-0.9-0.7-1.6-1.6-1.6c-0.9,0-1.6,0.7-1.6,1.6v3.9h-3.8c-0.1,0-0.1-0.1-0.1-0.1v-3.7l1.2-2.5L42.6,78L42.6,78z M43.9,80.2v0.4
			v1.1h1.8v-1.1v-0.4c0-0.5-0.4-0.9-0.9-0.9C44.3,79.3,43.9,79.7,43.9,80.2L43.9,80.2z M48.2,80.2v0.4v1.1h1.8v-1.1v-0.4
			c0-0.5-0.4-0.9-0.9-0.9C48.6,79.3,48.2,79.7,48.2,80.2z"/>
		<path class="st0" d="M42.4,71.8c0-0.1,0.1-0.1,0.1-0.1h2c0.1,0,0.1,0,0.1,0.1v2c0,0.1-0.1,0.1-0.1,0.1h-2c-0.1,0-0.1-0.1-0.1-0.1
			V71.8z"/>
		<path class="st0" d="M45.8,71.8c0-0.1,0.1-0.1,0.1-0.1h2c0.1,0,0.1,0,0.1,0.1v2c0,0.1-0.1,0.1-0.1,0.1h-2c-0.1,0-0.1-0.1-0.1-0.1
			V71.8z"/>
		<path class="st0" d="M49.2,71.8c0-0.1,0.1-0.1,0.1-0.1h2c0.1,0,0.1,0,0.1,0.1v2c0,0.1-0.1,0.1-0.1,0.1h-2c-0.1,0-0.1-0.1-0.1-0.1
			V71.8z"/>
		<path class="st0" d="M41.9,75.1c0,0,0.1-0.2,0.1-0.2h9.8c0.1,0,0.2,0.1,0.2,0.1v1.6c0,0-0.1,0.2-0.2,0.2H42
			c-0.1,0-0.1-0.1-0.1-0.1V75.1z"/>
		<path class="st0" d="M60.4,35.2H8.6L8.4,80.1c0,14.3,11.6,21.7,26,21.7c14.3,0,26-7.3,26-21.7V35.2L60.4,35.2z M62.3,33.2v46.9
			c0,15.4-12.5,23.6-27.9,23.6c-15.4,0-28-8.2-28-23.6l0.2-46.9H62.3z"/>
	</g>
	<g>
		<g>
			<path class="st1" d="M92.9,34h-1.7h-1l-6.8,18.4h4.2l1.2-3.7h6.5l1.2,3.7h4.2L93.9,34H92.9z M89.9,45.5l2.2-6.7l2.2,6.7H89.9z"/>
			<path class="st1" d="M107.3,46.9l-2.4-8.2h-4.1l4.8,13.7l-0.4,1c-0.2,0.5-0.4,0.8-0.7,1c-0.3,0.2-0.8,0.3-1.6,0.3
				c-0.1,0-0.2,0-0.3,0c-0.1,0-0.2,0-0.3,0v2.9c0.2,0.1,0.4,0.1,0.5,0.1c0.2,0,0.3,0.1,0.5,0.1c0.2,0,0.4,0,0.6,0
				c0.7,0,1.4-0.1,1.9-0.3c0.5-0.2,0.9-0.5,1.3-0.9c0.3-0.4,0.6-0.7,0.8-1.1c0.2-0.4,0.4-0.8,0.5-1.1l5.4-15.7h-4.1L107.3,46.9z"/>
			<path class="st1" d="M123.2,48.2c-0.2,0.3-0.4,0.6-0.7,0.8c-0.4,0.3-1,0.4-1.7,0.4c-0.4,0-0.7-0.1-1-0.2
				c-0.3-0.1-0.5-0.3-0.7-0.6c-0.2-0.3-0.2-0.7-0.2-1.1v-8.8h-3.8v8.8c0,1.8,0.4,3.1,1.3,3.9c0.8,0.8,1.9,1.2,3.3,1.2
				c1.1,0,2.1-0.3,2.8-0.8c0.3-0.2,0.6-0.5,0.9-0.8l0.1,1.4h3.6V38.7h-3.8V48.2z"/>
			<path class="st1" d="M139.5,38.9c-0.6-0.3-1.4-0.5-2.2-0.5c-1.1,0-2,0.3-2.8,0.8c-0.4,0.3-0.8,0.6-1.1,1l-0.1-1.6h-3.6v13.6h3.8
				v-9.6c0-0.1,0.1-0.2,0.1-0.2c0.2-0.3,0.5-0.6,0.8-0.7c0.3-0.2,0.7-0.3,1.2-0.3c0.5,0,0.8,0.1,1.1,0.2c0.3,0.1,0.5,0.3,0.7,0.6
				c0.2,0.3,0.2,0.7,0.2,1.3v8.7h3.8v-8.6c0-1.3-0.2-2.3-0.5-3.1C140.6,39.8,140.1,39.3,139.5,38.9z"/>
			<path class="st1" d="M150.1,49.4c-0.3,0-0.6,0-0.8-0.1c-0.2-0.1-0.4-0.2-0.5-0.4c-0.1-0.2-0.1-0.5-0.1-0.9v-6.6h2.3v-2.8h-2.3
				v-3.4h-3.8v3.4h-1.9v2.8h1.9v7c0,1,0.2,1.8,0.5,2.4c0.3,0.6,0.8,1,1.4,1.3c0.6,0.3,1.3,0.4,2.1,0.4c0.5,0,0.9,0,1.2-0.1
				c0.4-0.1,0.7-0.1,1-0.3l0-2.9c-0.1,0-0.3,0-0.5,0.1C150.5,49.4,150.3,49.4,150.1,49.4z"/>
			<path class="st1" d="M164.1,48.9v-5.7c0-1.1-0.2-2-0.7-2.7c-0.5-0.7-1.1-1.2-2-1.6c-0.8-0.4-1.8-0.5-2.8-0.5
				c-1.2,0-2.2,0.2-3.1,0.6c-0.9,0.4-1.6,0.9-2,1.6c-0.5,0.7-0.7,1.4-0.7,2.2h3.8c0-0.3,0.1-0.6,0.2-0.9c0.1-0.2,0.4-0.4,0.6-0.5
				c0.3-0.1,0.6-0.2,1-0.2c0.7,0,1.1,0.2,1.4,0.5c0.3,0.4,0.5,0.8,0.5,1.5V44h-1.5c-2.1,0-3.7,0.4-4.7,1.2c-1.1,0.8-1.6,1.9-1.6,3.3
				c0,0.8,0.2,1.5,0.6,2.1c0.4,0.6,1,1.1,1.7,1.4c0.7,0.3,1.5,0.5,2.3,0.5c0.7,0,1.2-0.1,1.7-0.3c0.5-0.2,0.9-0.4,1.3-0.8
				c0.1-0.1,0.3-0.3,0.4-0.4c0.1,0.5,0.2,0.9,0.4,1.2h3.8v-0.2c-0.2-0.4-0.3-0.8-0.4-1.2C164.1,50.4,164.1,49.8,164.1,48.9z
				 M159.2,49.4c-0.4,0.2-0.8,0.3-1.4,0.3c-0.5,0-0.9-0.1-1.2-0.4c-0.3-0.3-0.5-0.6-0.5-1.1c0-0.6,0.2-1,0.6-1.4
				c0.4-0.4,1.1-0.6,2-0.6h1.4v2.2c0,0.1-0.1,0.1-0.1,0.2C159.9,48.9,159.6,49.2,159.2,49.4z"/>
			<path class="st1" d="M184.3,38.9c-0.7-0.3-1.4-0.5-2.3-0.5c-1.2,0-2.1,0.3-2.9,0.9c-0.5,0.3-0.8,0.7-1.1,1.2
				c-0.2-0.4-0.4-0.7-0.6-0.9c-0.8-0.7-1.8-1.1-3-1.1c-1.2,0-2.2,0.3-3,0.9c-0.4,0.3-0.7,0.6-0.9,0.9l-0.1-1.5h-3.6v13.6h3.8v-9.6
				c0-0.1,0.1-0.1,0.1-0.2c0.2-0.3,0.5-0.6,0.8-0.7c0.3-0.2,0.7-0.3,1.2-0.3c0.4,0,0.8,0.1,1.1,0.2c0.3,0.1,0.5,0.3,0.7,0.6
				c0.2,0.3,0.2,0.8,0.2,1.3v8.6h3.8v-9.1c0-0.1,0-0.2,0-0.2c0.1-0.2,0.2-0.4,0.3-0.5c0.2-0.3,0.5-0.5,0.8-0.7
				c0.3-0.2,0.7-0.2,1.1-0.2c0.4,0,0.7,0.1,1,0.2c0.3,0.1,0.5,0.3,0.7,0.6c0.2,0.3,0.2,0.7,0.2,1.3v8.7h3.8v-8.7
				c0-1.3-0.2-2.3-0.5-3.1C185.5,39.8,185,39.3,184.3,38.9z"/>
			<path class="st1" d="M191.2,33.2c-0.6,0-1.2,0.2-1.6,0.5c-0.4,0.4-0.6,0.8-0.6,1.4c0,0.6,0.2,1,0.6,1.4c0.4,0.4,0.9,0.6,1.6,0.6
				c0.6,0,1.2-0.2,1.5-0.6c0.4-0.4,0.6-0.8,0.6-1.4c0-0.6-0.2-1-0.6-1.4S191.8,33.2,191.2,33.2z"/>
			<rect x="189.3" y="38.7" class="st1" width="3.8" height="13.6"/>
			<path class="st1" d="M205.3,39.3c-0.9-0.6-2-0.8-3.3-0.8c-1.3,0-2.5,0.3-3.4,0.9c-1,0.6-1.7,1.4-2.2,2.5
				c-0.5,1.1-0.8,2.3-0.8,3.6V46c0,1.2,0.3,2.3,0.8,3.3c0.5,1,1.3,1.8,2.3,2.4c1,0.6,2.2,0.9,3.7,0.9c1.3,0,2.5-0.3,3.3-0.8
				c0.9-0.5,1.6-1.1,2-1.7l-1.8-2.1c-0.4,0.5-0.9,0.9-1.4,1.1c-0.6,0.2-1.2,0.4-1.8,0.4c-0.7,0-1.3-0.1-1.8-0.4
				c-0.5-0.3-0.9-0.7-1.1-1.2c-0.2-0.3-0.3-0.7-0.3-1.1h8.6v-1.6c0-1.4-0.2-2.5-0.7-3.5C206.8,40.6,206.2,39.8,205.3,39.3z
				 M204.2,44.2h-4.8c0-0.3,0.1-0.5,0.2-0.7c0.2-0.6,0.4-1.1,0.8-1.4c0.4-0.4,0.9-0.5,1.5-0.5c0.5,0,1,0.1,1.3,0.3
				c0.3,0.2,0.6,0.5,0.8,0.8c0.2,0.4,0.3,0.8,0.3,1.2V44.2z"/>
			<path class="st1" d="M219.7,38.9c-0.6-0.3-1.4-0.5-2.2-0.5c-1.1,0-2,0.3-2.8,0.8c-0.4,0.3-0.8,0.6-1.1,1l-0.1-1.6h-3.6v13.6h3.8
				v-9.6c0-0.1,0.1-0.2,0.1-0.2c0.2-0.3,0.5-0.6,0.8-0.7c0.3-0.2,0.7-0.3,1.2-0.3c0.5,0,0.8,0.1,1.1,0.2c0.3,0.1,0.5,0.3,0.7,0.6
				c0.2,0.3,0.2,0.7,0.2,1.3v8.7h3.8v-8.6c0-1.3-0.2-2.3-0.5-3.1C220.9,39.8,220.4,39.3,219.7,38.9z"/>
			<path class="st1" d="M230.4,49.4c-0.3,0-0.6,0-0.8-0.1c-0.2-0.1-0.4-0.2-0.5-0.4c-0.1-0.2-0.1-0.5-0.1-0.9v-6.6h2.3v-2.8H229
				v-3.4h-3.8v3.4h-1.9v2.8h1.9v7c0,1,0.2,1.8,0.5,2.4c0.3,0.6,0.8,1,1.4,1.3c0.6,0.3,1.3,0.4,2.1,0.4c0.5,0,0.9,0,1.2-0.1
				c0.4-0.1,0.7-0.1,1-0.3l0-2.9c-0.1,0-0.3,0-0.5,0.1C230.8,49.4,230.6,49.4,230.4,49.4z"/>
			<path class="st1" d="M244.5,41.8c-0.5-1-1.2-1.9-2.2-2.5c-1-0.6-2.2-0.9-3.5-0.9c-1.4,0-2.6,0.3-3.5,0.9c-1,0.6-1.7,1.4-2.2,2.5
				c-0.5,1-0.8,2.2-0.8,3.6v0.3c0,1.3,0.3,2.5,0.8,3.6c0.5,1.1,1.2,1.9,2.2,2.5c1,0.6,2.1,0.9,3.5,0.9c1.4,0,2.6-0.3,3.5-0.9
				c1-0.6,1.7-1.4,2.2-2.5c0.5-1,0.7-2.2,0.7-3.6v-0.3C245.3,44,245,42.9,244.5,41.8z M241.5,45.6c0,0.7-0.1,1.4-0.3,2
				c-0.2,0.6-0.5,1.1-0.8,1.4c-0.4,0.3-0.9,0.5-1.6,0.5c-0.7,0-1.2-0.2-1.6-0.5c-0.4-0.3-0.7-0.8-0.8-1.4c-0.2-0.6-0.3-1.2-0.3-2
				v-0.3c0-0.7,0.1-1.3,0.3-1.9c0.2-0.6,0.4-1.1,0.8-1.4c0.4-0.4,0.9-0.5,1.6-0.5c0.7,0,1.2,0.2,1.6,0.5c0.4,0.4,0.7,0.8,0.8,1.4
				c0.2,0.6,0.3,1.2,0.3,1.9V45.6z"/>
		</g>
		<g>
			<path class="st1" d="M95.5,66.4h-2.2h-1.3l-8.7,23.4h5.4l1.5-4.7h8.3l1.5,4.7h5.4l-8.7-23.4H95.5z M91.7,81.1l2.8-8.5l2.8,8.5
				H91.7z"/>
			<polygon class="st1" points="112.6,66.4 107.6,66.4 107.6,89.8 111,89.8 112.6,89.8 122.8,89.8 122.8,85.7 112.6,85.7 			"/>
			<path class="st1" d="M140.5,78.3c-0.4-0.2-0.8-0.4-1.3-0.5c0.2-0.1,0.4-0.2,0.6-0.3c0.9-0.5,1.6-1.2,2.1-2
				c0.4-0.8,0.7-1.7,0.7-2.7c0-2.2-0.8-3.8-2.3-4.9c-1.6-1-3.7-1.6-6.5-1.6h-8.3v23.4h1.9h3.1h4c2.7,0,4.8-0.6,6.3-1.7
				c1.5-1.2,2.2-2.9,2.2-5.2c0-0.9-0.2-1.8-0.6-2.6S141.3,78.8,140.5,78.3z M133.7,70.5c1.3,0,2.2,0.2,2.8,0.7s0.9,1.2,0.9,2.2
				c0,0.9-0.3,1.6-0.9,2.1c-0.6,0.5-1.6,0.7-2.8,0.7h-3.2v-5.7H133.7z M137.1,84.9c-0.6,0.6-1.4,0.8-2.6,0.8h-4v-6.1h4.2
				c0.8,0,1.4,0.1,1.9,0.4c0.5,0.3,0.8,0.6,1.1,1.1c0.2,0.5,0.3,1,0.3,1.7C137.9,83.7,137.7,84.4,137.1,84.9z"/>
			<path class="st1" d="M156.6,66.4h-2.2h-1.3l-8.7,23.4h5.4l1.5-4.7h8.3l1.5,4.7h5.4l-8.7-23.4H156.6z M152.8,81.1l2.8-8.5l2.8,8.5
				H152.8z"/>
			<path class="st1" d="M173.7,73.3c0.3-1.1,0.9-1.8,1.5-2.3c0.7-0.5,1.5-0.8,2.6-0.8c1.6,0,2.7,0.4,3.3,1.1c0.6,0.7,1,1.8,1.1,3.1
				h5c-0.1-1.6-0.6-3-1.3-4.3c-0.7-1.3-1.8-2.2-3.1-3c-1.4-0.7-3-1.1-5-1.1c-2,0-3.7,0.5-5.2,1.4c-1.5,0.9-2.6,2.2-3.4,3.9
				c-0.8,1.7-1.2,3.7-1.2,6v1.4c0,2.3,0.4,4.3,1.2,6c0.8,1.7,1.9,3,3.4,3.9c1.5,0.9,3.2,1.4,5.2,1.4c1.9,0,3.6-0.3,5-1
				c1.4-0.7,2.4-1.7,3.2-2.9c0.8-1.2,1.2-2.6,1.3-4.2h-5c-0.1,0.9-0.3,1.6-0.6,2.2c-0.3,0.6-0.8,1-1.4,1.3c-0.6,0.3-1.4,0.4-2.4,0.4
				c-1.1,0-2-0.3-2.7-0.8c-0.7-0.5-1.2-1.3-1.5-2.4c-0.3-1.1-0.5-2.4-0.5-4v-1.5C173.1,75.7,173.3,74.4,173.7,73.3z"/>
			<polygon class="st1" points="195.3,79.7 204.4,79.7 204.4,75.8 195.3,75.8 195.3,70.5 206,70.5 206,66.4 195.3,66.4 193.7,66.4 
				190.3,66.4 190.3,89.8 193.7,89.8 195.3,89.8 206,89.8 206,85.7 195.3,85.7 			"/>
			<polygon class="st1" points="214.7,66.4 207.7,66.4 207.7,70.5 214.7,70.5 214.7,89.8 219.7,89.8 219.7,70.5 226.8,70.5 
				226.8,66.4 219.7,66.4 			"/>
			<polygon class="st1" points="234.6,85.7 234.6,79.7 243.7,79.7 243.7,75.8 234.6,75.8 234.6,70.5 245.3,70.5 245.3,66.4 
				234.6,66.4 232.9,66.4 229.5,66.4 229.5,89.8 232.9,89.8 234.6,89.8 245.3,89.8 245.3,85.7 			"/>
		</g>
	</g>
</g>
</svg>
